HIERARCHY
ROOT Hips
{
	OFFSET -338.882294 -555.210510 88.995560
	CHANNELS 6 Xposition Yposition Zposition Zrotation Yrotation Xrotation
	JOINT Spine
	{
		OFFSET 0.000000 2.080078 8.814247
		CHANNELS 6 Xposition Yposition Zposition Zrotation Yrotation Xrotation
		JOINT Spine1
		{
			OFFSET 0.000000 0.000000 8.844139
			CHANNELS 6 Xposition Yposition Zposition Zrotation Yrotation Xrotation
			JOINT Spine2
			{
				OFFSET 0.000000 0.000000 11.682266
				CHANNELS 6 Xposition Yposition Zposition Zrotation Yrotation Xrotation
				JOINT Spine3
				{
					OFFSET 0.000000 0.000000 11.746704
					CHANNELS 6 Xposition Yposition Zposition Zrotation Yrotation Xrotation
					JOINT Neck
					{
						OFFSET 0.000000 0.000000 17.658264
						CHANNELS 6 Xposition Yposition Zposition Zrotation Yrotation Xrotation
						JOINT Neck1
						{
							OFFSET 0.000000 0.000000 5.101517
							CHANNELS 6 Xposition Yposition Zposition Zrotation Yrotation Xrotation
							JOINT Head
							{
								OFFSET 0.000000 0.000000 5.101517
								CHANNELS 6 Xposition Yposition Zposition Zrotation Yrotation Xrotation
								JOINT HeadEnd
								{
									OFFSET 0.000000 0.000000 11.655090
									CHANNELS 6 Xposition Yposition Zposition Zrotation Yrotation Xrotation
									End Site
									{
										OFFSET 0.000000 0.000000 0.100006
									}
								}
							}
						}
					}
					JOINT RightShoulder
					{
						OFFSET -2.625397 0.000000 11.175217
						CHANNELS 6 Xposition Yposition Zposition Zrotation Yrotation Xrotation
						JOINT RightArm
						{
							OFFSET 0.000000 0.000000 10.434723
							CHANNELS 6 Xposition Yposition Zposition Zrotation Yrotation Xrotation
							JOINT RightForeArm
							{
								OFFSET 0.000000 0.000000 29.628418
								CHANNELS 6 Xposition Yposition Zposition Zrotation Yrotation Xrotation
								JOINT RightHand
								{
									OFFSET 0.000000 0.000000 22.857605
									CHANNELS 6 Xposition Yposition Zposition Zrotation Yrotation Xrotation
									JOINT RightHandThumb1
									{
										OFFSET -2.867310 -2.944275 3.959564
										CHANNELS 6 Xposition Yposition Zposition Zrotation Yrotation Xrotation
										JOINT RightHandThumb2
										{
											OFFSET 0.000000 0.000000 3.350403
											CHANNELS 6 Xposition Yposition Zposition Zrotation Yrotation Xrotation
											JOINT RightHandThumb3
											{
												OFFSET 0.000000 0.000000 3.756516
												CHANNELS 6 Xposition Yposition Zposition Zrotation Yrotation Xrotation
												JOINT RightHandThumb4
												{
													OFFSET 0.000000 0.000000 3.147339
													CHANNELS 6 Xposition Yposition Zposition Zrotation Yrotation Xrotation
													End Site
													{
														OFFSET 0.000000 0.000000 0.100006
													}
												}
											}
										}
									}
									JOINT RightHandIndex1
									{
										OFFSET -0.086761 -2.345276 10.030899
										CHANNELS 6 Xposition Yposition Zposition Zrotation Yrotation Xrotation
										JOINT RightHandIndex2
										{
											OFFSET 0.000000 0.000000 4.061096
											CHANNELS 6 Xposition Yposition Zposition Zrotation Yrotation Xrotation
											JOINT RightHandIndex3
											{
												OFFSET 0.000000 0.000000 3.248871
												CHANNELS 6 Xposition Yposition Zposition Zrotation Yrotation Xrotation
												JOINT RightHandIndex4
												{
													OFFSET 0.000000 0.000000 2.639709
													CHANNELS 6 Xposition Yposition Zposition Zrotation Yrotation Xrotation
													End Site
													{
														OFFSET 0.000000 0.000000 0.100006
													}
												}
											}
										}
									}
									JOINT RightHandMiddle1
									{
										OFFSET 0.104095 -0.006775 9.502945
										CHANNELS 6 Xposition Yposition Zposition Zrotation Yrotation Xrotation
										JOINT RightHandMiddle2
										{
											OFFSET 0.000000 0.000000 4.568726
											CHANNELS 6 Xposition Yposition Zposition Zrotation Yrotation Xrotation
											JOINT RightHandMiddle3
											{
												OFFSET 0.000000 0.000000 3.654984
												CHANNELS 6 Xposition Yposition Zposition Zrotation Yrotation Xrotation
												JOINT RightHandMiddle4
												{
													OFFSET 0.000000 0.000000 2.741241
													CHANNELS 6 Xposition Yposition Zposition Zrotation Yrotation Xrotation
													End Site
													{
														OFFSET 0.000000 0.000000 0.100006
													}
												}
											}
										}
									}
									JOINT RightHandRing1
									{
										OFFSET 0.086761 2.267456 8.921707
										CHANNELS 6 Xposition Yposition Zposition Zrotation Yrotation Xrotation
										JOINT RightHandRing2
										{
											OFFSET 0.000000 0.000000 4.061096
											CHANNELS 6 Xposition Yposition Zposition Zrotation Yrotation Xrotation
											JOINT RightHandRing3
											{
												OFFSET 0.000000 0.000000 3.654984
												CHANNELS 6 Xposition Yposition Zposition Zrotation Yrotation Xrotation
												JOINT RightHandRing4
												{
													OFFSET 0.000000 0.000000 2.741241
													CHANNELS 6 Xposition Yposition Zposition Zrotation Yrotation Xrotation
													End Site
													{
														OFFSET 0.000000 0.000000 0.100006
													}
												}
											}
										}
									}
									JOINT RightHandPinky1
									{
										OFFSET -0.173492 4.467224 7.976990
										CHANNELS 6 Xposition Yposition Zposition Zrotation Yrotation Xrotation
										JOINT RightHandPinky2
										{
											OFFSET 0.000000 0.000000 3.350403
											CHANNELS 6 Xposition Yposition Zposition Zrotation Yrotation Xrotation
											JOINT RightHandPinky3
											{
												OFFSET 0.000000 0.000000 2.842758
												CHANNELS 6 Xposition Yposition Zposition Zrotation Yrotation Xrotation
												JOINT RightHandPinky4
												{
													OFFSET 0.000000 0.000000 2.639709
													CHANNELS 6 Xposition Yposition Zposition Zrotation Yrotation Xrotation
													End Site
													{
														OFFSET 0.000000 0.000000 0.100006
													}
												}
											}
										}
									}
									JOINT RightForeArmEnd
									{
										OFFSET 0.000000 0.000000 0.000000
										CHANNELS 6 Xposition Yposition Zposition Zrotation Yrotation Xrotation
										End Site
										{
											OFFSET 0.000000 0.000000 0.100006
										}
									}
								}
								JOINT RightArmEnd
								{
									OFFSET 0.000000 0.000000 0.000000
									CHANNELS 6 Xposition Yposition Zposition Zrotation Yrotation Xrotation
									End Site
									{
										OFFSET 0.000000 0.000000 0.100006
									}
								}
							}
						}
					}
					JOINT LeftShoulder
					{
						OFFSET 2.625397 0.000000 11.175217
						CHANNELS 6 Xposition Yposition Zposition Zrotation Yrotation Xrotation
						JOINT LeftArm
						{
							OFFSET 0.000000 0.000000 10.813629
							CHANNELS 6 Xposition Yposition Zposition Zrotation Yrotation Xrotation
							JOINT LeftForeArm
							{
								OFFSET 0.000000 0.000000 28.724777
								CHANNELS 6 Xposition Yposition Zposition Zrotation Yrotation Xrotation
								JOINT LeftHand
								{
									OFFSET 0.644379 0.328857 25.716171
									CHANNELS 6 Xposition Yposition Zposition Zrotation Yrotation Xrotation
									JOINT LeftHandThumb1
									{
										OFFSET 2.867310 -2.944275 3.959564
										CHANNELS 6 Xposition Yposition Zposition Zrotation Yrotation Xrotation
										JOINT LeftHandThumb2
										{
											OFFSET 0.000000 0.000000 3.350403
											CHANNELS 6 Xposition Yposition Zposition Zrotation Yrotation Xrotation
											JOINT LeftHandThumb3
											{
												OFFSET 0.000000 0.000000 3.756516
												CHANNELS 6 Xposition Yposition Zposition Zrotation Yrotation Xrotation
												JOINT LeftHandThumb4
												{
													OFFSET 0.000000 0.000000 3.100006
													CHANNELS 6 Xposition Yposition Zposition Zrotation Yrotation Xrotation
													End Site
													{
														OFFSET 0.000000 0.000000 0.100006
													}
												}
											}
										}
									}
									JOINT LeftHandIndex1
									{
										OFFSET 0.086761 -2.345276 10.030899
										CHANNELS 6 Xposition Yposition Zposition Zrotation Yrotation Xrotation
										JOINT LeftHandIndex2
										{
											OFFSET 0.000000 0.000000 4.061096
											CHANNELS 6 Xposition Yposition Zposition Zrotation Yrotation Xrotation
											JOINT LeftHandIndex3
											{
												OFFSET 0.000000 0.000000 3.248871
												CHANNELS 6 Xposition Yposition Zposition Zrotation Yrotation Xrotation
												JOINT LeftHandIndex4
												{
													OFFSET 0.000000 0.000000 2.639709
													CHANNELS 6 Xposition Yposition Zposition Zrotation Yrotation Xrotation
													End Site
													{
														OFFSET 0.000000 0.000000 0.100006
													}
												}
											}
										}
									}
									JOINT LeftHandMiddle1
									{
										OFFSET -0.104095 -0.006775 9.502945
										CHANNELS 6 Xposition Yposition Zposition Zrotation Yrotation Xrotation
										JOINT LeftHandMiddle2
										{
											OFFSET 0.000000 0.000000 4.568726
											CHANNELS 6 Xposition Yposition Zposition Zrotation Yrotation Xrotation
											JOINT LeftHandMiddle3
											{
												OFFSET 0.000000 0.000000 3.654984
												CHANNELS 6 Xposition Yposition Zposition Zrotation Yrotation Xrotation
												JOINT LeftHandMiddle4
												{
													OFFSET 0.000000 0.000000 2.741241
													CHANNELS 6 Xposition Yposition Zposition Zrotation Yrotation Xrotation
													End Site
													{
														OFFSET 0.000000 0.000000 0.100006
													}
												}
											}
										}
									}
									JOINT LeftHandRing1
									{
										OFFSET -0.086761 2.267456 8.921707
										CHANNELS 6 Xposition Yposition Zposition Zrotation Yrotation Xrotation
										JOINT LeftHandRing2
										{
											OFFSET 0.000000 0.000000 4.061096
											CHANNELS 6 Xposition Yposition Zposition Zrotation Yrotation Xrotation
											JOINT LeftHandRing3
											{
												OFFSET 0.000000 0.000000 3.654984
												CHANNELS 6 Xposition Yposition Zposition Zrotation Yrotation Xrotation
												JOINT LeftHandRing4
												{
													OFFSET 0.000000 0.000000 2.741241
													CHANNELS 6 Xposition Yposition Zposition Zrotation Yrotation Xrotation
													End Site
													{
														OFFSET 0.000000 0.000000 0.100006
													}
												}
											}
										}
									}
									JOINT LeftHandPinky1
									{
										OFFSET 0.173492 4.467224 7.976990
										CHANNELS 6 Xposition Yposition Zposition Zrotation Yrotation Xrotation
										JOINT LeftHandPinky2
										{
											OFFSET 0.000000 0.000000 3.350403
											CHANNELS 6 Xposition Yposition Zposition Zrotation Yrotation Xrotation
											JOINT LeftHandPinky3
											{
												OFFSET 0.000000 0.000000 2.842758
												CHANNELS 6 Xposition Yposition Zposition Zrotation Yrotation Xrotation
												JOINT LeftHandPinky4
												{
													OFFSET 0.000000 0.000000 2.639709
													CHANNELS 6 Xposition Yposition Zposition Zrotation Yrotation Xrotation
													End Site
													{
														OFFSET 0.000000 0.000000 0.100006
													}
												}
											}
										}
									}
									JOINT LeftForeArmEnd
									{
										OFFSET 0.000000 0.000000 0.000000
										CHANNELS 6 Xposition Yposition Zposition Zrotation Yrotation Xrotation
										End Site
										{
											OFFSET 0.000000 0.000000 0.100006
										}
									}
								}
								JOINT LeftArmEnd
								{
									OFFSET 0.000000 0.000000 0.000000
									CHANNELS 6 Xposition Yposition Zposition Zrotation Yrotation Xrotation
									End Site
									{
										OFFSET 0.000000 0.000000 0.100006
									}
								}
							}
						}
					}
				}
			}
		}
	}
	JOINT RightUpLeg
	{
		OFFSET -11.289948 0.000000 0.000000
		CHANNELS 6 Xposition Yposition Zposition Zrotation Yrotation Xrotation
		JOINT RightLeg
		{
			OFFSET 0.000000 0.000000 -38.200321
			CHANNELS 6 Xposition Yposition Zposition Zrotation Yrotation Xrotation
			JOINT RightFoot
			{
				OFFSET 0.000000 0.000000 -39.900856
				CHANNELS 6 Xposition Yposition Zposition Zrotation Yrotation Xrotation
				JOINT RightToeBase
				{
					OFFSET 0.000000 -15.261658 0.000001
					CHANNELS 6 Xposition Yposition Zposition Zrotation Yrotation Xrotation
					JOINT RightToeBaseEnd
					{
						OFFSET 0.000000 -7.370728 0.000001
						CHANNELS 6 Xposition Yposition Zposition Zrotation Yrotation Xrotation
						End Site
						{
							OFFSET 0.000000 0.000000 0.100000
						}
					}
				}
				JOINT RightLegEnd
				{
					OFFSET 0.000000 0.000000 0.000000
					CHANNELS 6 Xposition Yposition Zposition Zrotation Yrotation Xrotation
					End Site
					{
						OFFSET 0.000000 0.000000 0.100000
					}
				}
			}
			JOINT RightUpLegEnd
			{
				OFFSET 0.000000 0.000000 0.000000
				CHANNELS 6 Xposition Yposition Zposition Zrotation Yrotation Xrotation
				End Site
				{
					OFFSET 0.000000 0.000000 0.099998
				}
			}
		}
	}
	JOINT LeftUpLeg
	{
		OFFSET 11.315674 0.000000 0.000000
		CHANNELS 6 Xposition Yposition Zposition Zrotation Yrotation Xrotation
		JOINT LeftLeg
		{
			OFFSET 0.000000 0.000000 -38.200321
			CHANNELS 6 Xposition Yposition Zposition Zrotation Yrotation Xrotation
			JOINT LeftFoot
			{
				OFFSET 0.000000 0.000000 -39.900856
				CHANNELS 6 Xposition Yposition Zposition Zrotation Yrotation Xrotation
				JOINT LeftToeBase
				{
					OFFSET 0.000000 -15.261658 0.000001
					CHANNELS 6 Xposition Yposition Zposition Zrotation Yrotation Xrotation
					JOINT LeftToeBaseEnd
					{
						OFFSET 0.000000 -7.539978 0.000001
						CHANNELS 6 Xposition Yposition Zposition Zrotation Yrotation Xrotation
						End Site
						{
							OFFSET 0.000000 0.000000 0.100000
						}
					}
				}
				JOINT LeftLegEnd
				{
					OFFSET 0.000000 0.000000 0.000000
					CHANNELS 6 Xposition Yposition Zposition Zrotation Yrotation Xrotation
					End Site
					{
						OFFSET 0.000000 0.000000 0.100000
					}
				}
			}
			JOINT LeftUpLegEnd
			{
				OFFSET 0.000000 0.000000 0.000000
				CHANNELS 6 Xposition Yposition Zposition Zrotation Yrotation Xrotation
				End Site
				{
					OFFSET 0.000000 0.000000 0.099998
				}
			}
		}
	}
}
MOTION
Frames: 2
Frame Time: 0.016667
-21.866608 -17.713745 79.959694 26.704834 2.584851 -23.638564 0.000022 2.080099 8.814238 -1.180062 -3.894688 11.505458 -0.000007 0.000005 8.844120 0.132317 0.809454 5.378120 0.000000 -0.000016 11.682267 -9.211858 -1.380529 7.734678 0.000000 -0.000046 11.746712 -3.807179 -2.486505 8.694582 0.000000 0.000004 17.658279 -10.923206 -14.448019 22.981073 -0.000004 0.000023 5.101518 -3.667716 0.591619 2.438439 -0.000013 0.000022 5.101542 -1.600929 -1.548549 -22.976374 0.000003 0.000002 11.655082 -0.000000 -0.000002 -0.000000 -2.625404 0.000021 11.175216 9.299548 -72.670330 -0.051961 0.000019 0.000008 10.434746 61.077000 -18.843768 -7.488943 0.000023 -0.000034 29.628368 27.041687 1.529212 97.797053 0.000000 -0.000095 22.857609 6.391353 30.781685 -6.266784 -2.867309 -2.944275 3.959549 33.066660 -28.151736 36.350267 -0.000015 -0.000076 3.350433 -36.541468 9.623778 -61.392090 -0.000008 0.000015 3.756470 -24.485514 11.025068 -42.041604 0.000009 0.000007 3.147342 -0.000001 0.000003 -0.000000 -0.086778 -2.345243 10.030941 -128.110593 -66.650236 125.551622 -0.000034 -0.000013 4.061119 -16.893735 -71.062483 24.180401 -0.000023 -0.000008 3.248894 -17.393741 -71.062477 24.180417 -0.000007 -0.000003 2.639725 0.000000 -0.000001 -0.000004 0.104099 -0.006767 9.502941 -131.852472 -72.044330 134.455334 -0.000040 -0.000031 4.568745 -5.861808 -71.232104 8.872168 -0.000019 0.000004 3.654972 -6.361756 -71.232111 8.872126 -0.000010 0.000027 2.741250 -0.000003 -0.000002 -0.000002 0.086739 2.267477 8.921707 -164.627380 -70.601801 173.035521 -0.000023 -0.000024 4.061119 9.250816 -75.117867 -13.306249 -0.000011 -0.000015 3.655014 10.250833 -75.117908 -13.306283 0.000041 0.000003 2.741260 -0.000000 0.000002 0.000002 -0.173477 4.467264 7.976982 171.774176 -67.620526 -158.023762 0.000000 0.000000 3.350384 25.904606 -72.312620 -37.556017 0.000023 0.000027 2.842747 27.904589 -72.312606 -37.556003 -0.000032 -0.000023 2.639705 0.000002 0.000001 0.000002 -0.000016 0.000010 0.000018 -0.000001 -0.000001 -0.000001 0.000002 0.000002 0.000001 -0.000000 0.000000 -0.000000 2.625389 -0.000031 11.175231 -12.884294 74.782362 -0.412462 0.000011 -0.000014 10.813629 0.781236 25.257609 -8.501647 -0.000015 -0.000038 28.724819 -13.082253 1.235000 112.520058 0.644302 0.328817 25.716171 5.431041 -42.731784 11.972055 2.867283 -2.944290 3.959549 -31.933132 15.385307 54.454930 0.000013 0.000042 3.350407 8.550973 -6.464778 -15.863213 0.000011 -0.000023 3.756500 5.744570 -4.744957 -10.902216 0.000025 0.000000 3.100030 -0.000000 0.000003 0.000002 0.086792 -2.345289 10.030910 353.307354 -77.162355 -157.745131 0.000005 0.000008 4.061110 0.499562 0.000393 0.000080 -0.000008 -0.000022 3.248886 -0.000478 0.000002 0.000537 0.000007 0.000008 2.639710 -0.000001 0.000005 0.000001 -0.104046 -0.006780 9.502964 341.218274 -70.998689 -162.328885 0.000012 0.000016 4.568742 0.498230 0.000190 -0.000675 -0.000030 -0.000000 3.654974 -0.000334 0.000064 -0.018588 0.000009 -0.000007 2.741249 0.000002 -0.000001 -0.000001 -0.086784 2.267484 8.921707 158.527489 52.980312 158.980521 0.000010 -0.000031 4.061111 45.478306 85.427614 49.887090 0.000008 0.000020 3.654989 46.478676 85.427628 49.886500 0.000002 0.000007 2.741260 -0.000002 0.000001 -0.000001 0.173508 4.467183 7.976990 149.390949 46.090977 158.798128 0.000017 0.000008 3.350393 80.832666 78.975025 93.904521 0.000005 -0.000008 2.842763 82.832805 78.975032 93.903176 -0.000003 -0.000007 2.639691 0.000001 -0.000000 0.000000 0.000004 0.000004 0.000030 -0.000001 -0.000002 0.000001 -0.000027 -0.000001 -0.000004 0.000000 0.000000 0.000001 -11.289920 -0.000012 0.000011 -17.129674 8.169096 5.624236 -0.000046 -0.000019 -38.200340 0.124373 -0.149811 50.289170 -0.000038 -0.000003 -39.900856 -21.974549 -10.576318 -4.829376 0.000028 -15.261735 0.000031 1.633711 0.171477 -15.884636 -0.000005 -7.370732 0.000001 0.000001 -0.000000 0.000000 -0.000035 -0.000053 0.000003 -0.000001 -0.000000 -0.000000 -0.000029 0.000006 -0.000005 -0.000001 0.000000 -0.000005 11.315605 -0.000012 -0.000004 -9.311900 -24.730267 -3.560939 -0.000037 0.000024 -38.200321 -0.833788 0.512022 31.551420 -0.000029 -0.000054 -39.900856 17.193652 -5.604358 10.650527 -0.000036 -15.261719 0.000008 2.258080 -2.024026 -22.924509 -0.000017 -7.539975 0.000002 -0.000000 0.000000 -0.000001 0.000014 -0.000057 0.000002 -0.000001 -0.000000 0.000000 -0.000045 -0.000002 -0.000008 0.000000 0.000002 0.000001 
-21.359558 -17.582703 80.243782 23.381648 0.793114 -23.383327 0.000010 2.080097 8.814251 -1.130893 -4.271316 11.690928 0.000015 0.000001 8.844147 0.223724 0.376909 5.280817 0.000010 0.000013 11.682281 -7.159181 -0.699880 7.329493 -0.000011 0.000004 11.746706 -2.708759 -0.713579 8.344411 -0.000011 0.000000 17.658318 -12.165995 -14.429109 23.191219 -0.000001 0.000028 5.101521 -4.658799 0.809532 2.362512 0.000007 0.000015 5.101510 -1.689563 -1.726249 -22.895470 -0.000000 0.000003 11.655060 -0.000000 0.000000 0.000000 -2.625412 -0.000023 11.175228 10.109660 -70.215499 -0.045567 0.000004 -0.000017 10.434746 56.162549 -16.795734 -4.546848 0.000000 -0.000013 29.628418 27.643294 1.641950 87.208142 -0.000008 -0.000099 22.857620 7.888723 29.728685 -5.214034 -2.867306 -2.944244 3.959534 33.066510 -28.151902 36.350567 0.000000 -0.000031 3.350418 -36.541584 9.623206 -61.392862 0.000015 0.000008 3.756470 -24.484855 11.025519 -42.041324 -0.000014 -0.000004 3.147329 0.000001 0.000000 0.000001 -0.086811 -2.345255 10.030876 -128.266745 -66.622533 123.785595 -0.000004 -0.000053 4.061111 -16.705594 -70.925395 23.981429 -0.000015 -0.000071 3.248840 -17.205648 -70.925395 23.981453 -0.000035 0.000010 2.639752 -0.000001 -0.000001 0.000003 0.104076 -0.006777 9.502926 -130.593517 -72.368115 131.668002 -0.000008 0.000025 4.568735 -5.665583 -70.818475 8.664642 -0.000021 -0.000031 3.655027 -6.165533 -70.818475 8.664623 0.000026 0.000024 2.741270 -0.000003 0.000002 -0.000003 0.086700 2.267473 8.921684 -163.481957 -71.773663 170.890500 -0.000042 0.000011 4.061100 8.571083 -74.339629 -12.601676 -0.000023 -0.000003 3.655014 9.571169 -74.339629 -12.601738 0.000010 -0.000002 2.741248 0.000000 -0.000001 -0.000003 -0.173515 4.467215 7.976952 171.333670 -69.243802 -157.906638 0.000000 0.000034 3.350403 23.892895 -71.467336 -35.439516 -0.000015 -0.000008 2.842773 25.892882 -71.467357 -35.439533 -0.000004 0.000014 2.639714 -0.000002 0.000001 0.000003 -0.000036 -0.000006 -0.000014 0.000001 -0.000001 -0.000001 -0.000006 -0.000011 -0.000007 0.000002 0.000001 -0.000000 2.625397 -0.000008 11.175204 -11.220754 75.234950 -0.338435 -0.000023 0.000004 10.813629 3.439208 29.639087 -11.307335 -0.000042 -0.000053 28.724754 -12.160536 0.839092 118.054875 0.644341 0.328865 25.716141 13.213864 -43.570426 15.004662 2.867321 -2.944290 3.959549 -31.933142 15.385288 54.454916 -0.000010 0.000023 3.350395 8.550978 -6.464786 -15.863215 0.000051 -0.000023 3.756512 5.744568 -4.744949 -10.902216 0.000016 -0.000005 3.099986 0.000001 0.000000 0.000001 0.086739 -2.345271 10.030907 353.246428 -77.401186 -158.413711 0.000041 -0.000023 4.061121 0.499560 0.000060 0.000076 -0.000025 0.000028 3.248893 -0.000476 0.000002 0.000583 -0.000011 -0.000008 2.639718 0.000001 0.000001 0.000004 -0.104065 -0.006761 9.502964 340.879278 -71.271877 -163.051191 -0.000006 0.000027 4.568737 0.498220 0.000212 -0.000677 0.000001 -0.000005 3.654971 -0.000333 0.000080 -0.018636 0.000009 0.000003 2.741217 -0.000000 -0.000001 -0.000001 -0.086754 2.267472 8.921692 158.525467 52.996312 160.323255 0.000004 0.000027 4.061096 46.088563 85.467981 50.502057 0.000004 0.000024 3.655002 47.088830 85.467994 50.499666 -0.000013 0.000008 2.741262 -0.000001 -0.000000 0.000001 0.173508 4.467231 7.976967 149.245985 46.413321 160.640175 0.000025 -0.000027 3.350381 81.230163 78.969575 94.313199 0.000034 0.000000 2.842755 83.230049 78.969568 94.310323 -0.000009 0.000005 2.639697 -0.000000 -0.000000 -0.000001 -0.000005 0.000003 0.000029 -0.000000 -0.000001 -0.000000 -0.000004 0.000001 -0.000012 -0.000001 -0.000000 -0.000000 -11.289989 0.000068 0.000008 -13.126400 8.484041 4.283928 -0.000009 -0.000018 -38.200317 0.156100 -0.192974 51.034368 -0.000034 -0.000014 -39.900856 -22.160714 -10.550072 -4.349019 -0.000005 -15.261708 0.000028 1.566698 0.363526 -16.252789 0.000026 -7.370734 0.000001 0.000001 -0.000000 -0.000000 -0.000022 -0.000057 0.000001 -0.000001 0.000000 0.000001 -0.000027 0.000001 -0.000001 -0.000000 0.000000 -0.000002 11.315632 -0.000072 -0.000007 -9.802714 -23.003295 -1.403840 -0.000005 0.000022 -38.200333 -0.847105 0.497960 30.446678 -0.000002 -0.000046 -39.900852 17.427533 -5.364517 11.545631 -0.000023 -15.261715 0.000012 2.170471 -1.892667 -23.509200 -0.000030 -7.539975 0.000003 -0.000000 0.000002 0.000001 -0.000040 -0.000016 -0.000000 0.000003 0.000000 0.000001 -0.000032 -0.000003 0.000005 0.000000 -0.000001 0.000001 
